<svg width="132" height="130" viewBox="0 0 132 130" fill="none" xmlns="http://www.w3.org/2000/svg">
<ellipse cx="66" cy="65" rx="66" ry="65" fill="#E29DC7"/>
<path d="M113.508 96.7559C113.638 96.9837 113.703 97.2604 113.703 97.5859C113.703 98.0742 113.524 98.4974 113.166 98.8555C112.84 99.2135 112.401 99.3926 111.848 99.3926C111.49 99.3926 111.164 99.3112 110.871 99.1484C110.611 98.9857 110.399 98.7415 110.236 98.416C109.618 97.2116 109.064 95.7142 108.576 93.9238C108.12 92.1009 107.714 90.0827 107.355 87.8691C107.03 85.6556 106.753 83.2793 106.525 80.7402C106.33 78.1686 106.167 75.5156 106.037 72.7812C103.596 73.1068 100.845 73.4648 97.7852 73.8555C94.7578 74.2461 91.291 74.7018 87.3848 75.2227C84.6504 75.6133 81.8672 75.9551 79.0352 76.248C72.069 83.8327 64.7285 89.5944 57.0137 93.5332C49.3314 97.4395 41.6165 99.3926 33.8691 99.3926C30.4186 99.3926 27.4238 99.0508 24.8848 98.3672C22.3783 97.7161 20.2949 96.9837 18.6348 96.1699C17.0072 95.3236 15.7865 94.5423 14.9727 93.8262C14.1263 93.11 13.6706 92.7194 13.6055 92.6543C13.2799 92.3288 13.1172 91.9056 13.1172 91.3848C13.1172 90.8639 13.2962 90.4245 13.6543 90.0664C14.0124 89.7083 14.4355 89.5293 14.9238 89.5293C15.4772 89.5293 15.9329 89.7246 16.291 90.1152C16.3561 90.1803 16.7467 90.5221 17.4629 91.1406C18.179 91.7266 19.237 92.3613 20.6367 93.0449C22.069 93.7285 23.8757 94.347 26.0566 94.9004C28.2376 95.4538 30.8255 95.7305 33.8203 95.7305C37.9219 95.7305 41.8444 95.1771 45.5879 94.0703C49.3314 92.9635 52.8633 91.5312 56.1836 89.7734C59.5365 87.9831 62.6452 85.9486 65.5098 83.6699C68.4069 81.3913 71.0273 79.0801 73.3711 76.7363C71.0599 76.9316 68.765 77.0781 66.4863 77.1758C64.2077 77.2734 61.9616 77.3223 59.748 77.3223C55.3861 77.3223 51.2357 77.0781 47.2969 76.5898C43.3581 76.1016 39.8913 75.2878 36.8965 74.1484C33.9017 72.9766 31.5091 71.4303 29.7188 69.5098C27.9609 67.5892 27.082 65.1966 27.082 62.332C27.082 61.0299 27.3424 59.7279 27.8633 58.4258C28.4167 57.1237 29.0677 55.9518 29.8164 54.9102C30.5651 53.8359 31.3464 52.9733 32.1602 52.3223C32.974 51.6387 33.6738 51.2969 34.2598 51.2969C34.7155 51.2969 35.1387 51.4596 35.5293 51.7852C35.9199 52.1107 36.1152 52.5501 36.1152 53.1035C36.1152 53.3965 36.0501 53.6895 35.9199 53.9824C35.7897 54.2428 35.5944 54.4544 35.334 54.6172C35.2689 54.6823 34.9922 54.9102 34.5039 55.3008C34.0156 55.6914 33.4948 56.2285 32.9414 56.9121C32.388 57.5632 31.8835 58.3607 31.4277 59.3047C30.972 60.2161 30.7441 61.209 30.7441 62.2832C30.7441 64.1387 31.3789 65.7826 32.6484 67.2148C33.9505 68.6146 35.8223 69.8027 38.2637 70.7793C40.7376 71.7233 43.765 72.4395 47.3457 72.9277C50.9264 73.416 55.0117 73.6602 59.6016 73.6602C62.2383 73.6602 65.0215 73.5788 67.9512 73.416C70.8809 73.2533 73.9733 73.0091 77.2285 72.6836C78.791 70.9583 80.1745 69.3307 81.3789 67.8008C82.5833 66.2708 83.6087 64.9036 84.4551 63.6992C85.8548 61.7135 87.3197 59.5977 88.8496 57.3516C90.3796 55.1055 91.8932 52.8268 93.3906 50.5156C94.9206 48.2044 96.4017 45.9258 97.834 43.6797C99.2988 41.401 100.666 39.2689 101.936 37.2832C103.205 35.265 104.344 33.4421 105.354 31.8145C106.363 30.1543 107.193 28.7871 107.844 27.7129C108.039 26.834 108.332 26.0365 108.723 25.3203C109.113 24.5716 109.748 24.1973 110.627 24.1973C111.115 24.1973 111.587 24.4089 112.043 24.832C112.499 25.2227 112.727 25.7272 112.727 26.3457C112.727 26.8014 112.564 27.2897 112.238 27.8105C111.913 28.3314 111.604 28.7708 111.311 29.1289C111.213 29.7474 111.05 31.0658 110.822 33.084C110.627 35.1022 110.415 37.5762 110.188 40.5059C109.992 43.403 109.813 46.6094 109.65 50.125C109.52 53.6081 109.455 57.14 109.455 60.7207C109.455 62.0553 109.455 63.3737 109.455 64.6758C109.455 65.9779 109.488 67.2962 109.553 68.6309C114.436 68.0124 118 67.5892 120.246 67.3613C122.492 67.1009 123.68 66.9707 123.811 66.9707C124.234 66.9707 124.641 67.1497 125.031 67.5078C125.454 67.8333 125.666 68.2728 125.666 68.8262C125.666 69.2819 125.503 69.6888 125.178 70.0469C124.885 70.3724 124.494 70.5677 124.006 70.6328C123.42 70.6979 122.736 70.7793 121.955 70.877C121.174 70.9746 120.214 71.0885 119.074 71.2188C117.935 71.349 116.6 71.5117 115.07 71.707C113.54 71.8698 111.75 72.0814 109.699 72.3418C109.797 75.0111 109.943 77.5827 110.139 80.0566C110.367 82.498 110.627 84.7767 110.92 86.8926C111.245 89.0085 111.62 90.9128 112.043 92.6055C112.466 94.2982 112.954 95.6816 113.508 96.7559ZM86.8965 71.5605C90.7376 71.0397 94.2207 70.584 97.3457 70.1934C100.503 69.7702 103.352 69.3958 105.891 69.0703C105.858 67.6706 105.826 66.2708 105.793 64.8711C105.793 63.4714 105.793 62.0553 105.793 60.623C105.793 56.0332 105.874 51.6549 106.037 47.4883C106.2 43.2891 106.428 39.6432 106.721 36.5508C105.419 38.6016 103.97 40.8802 102.375 43.3867C100.812 45.8607 99.1849 48.3997 97.4922 51.0039C95.7995 53.5755 94.0905 56.1309 92.3652 58.6699C90.64 61.209 88.9961 63.5853 87.4336 65.7988C86.6523 66.9056 85.8548 67.9798 85.041 69.0215C84.2272 70.0632 83.4134 71.0885 82.5996 72.0977C83.3158 72.0326 84.0156 71.9512 84.6992 71.8535C85.4154 71.7559 86.1478 71.6582 86.8965 71.5605Z" fill="#FFFDFD"/>
</svg>
